<?xml version="1.0" encoding="UTF-8"?>
<svg id="Calque_1" data-name="Calque 1" xmlns="http://www.w3.org/2000/svg" viewBox="0 0 15.59 15.59">
  <defs>
    <style>
      .cls-1 {
        fill: #f60;
      }
    </style>
  </defs>
  <path class="cls-1" d="M15.58,6.29c-.03-1.23.06-1.86-.04-2.89-.22-1.67-1.76-3.19-3.46-3.37h-.1C9.85-.02,4.91.01,3.84,0,2.16.03.51,1.37.14,3.04c-.29,2.46-.03,5.84-.11,8.32-.14,2.61,2.27,4.51,4.78,4.19h6.67c1.92.11,3.91-1.6,4.09-3.55.06-1.78,0-3.83.02-5.72ZM12.81,6.6v3.71c-.18,2.11-2.13,2.68-4.01,2.48-1.29-.03-2.64.06-3.86-.06-1.12-.17-2.05-1.21-2.15-2.29-.06-1.34,0-3.29-.02-4.55-.23-1.66,1.11-3.27,2.81-3.14,1.41.02,3.4-.04,4.88.02,1.98.27,2.52,2.01,2.34,3.82Z"/>
  <path class="cls-1" d="M10.25,4.01l-.08-.02c-1.02,0-3.06,0-4.1,0-.62.02-.58-.08-1.18.18-.83.43-.98,1.25-.92,2.13,0,1.08-.02,2.77,0,3.85.17.98,1.08,1.62,2.11,1.48,1,0,3.75,0,4.07,0,.52-.09,1.02-.43,1.27-.93.21-.45.19-.55.19-.84,0-1.04,0-2.71,0-3.76.13-.96-.44-1.87-1.36-2.08ZM7.89,9.84h-.11c-2.47-.05-2.77-3.74-.32-4.16,2.94-.44,3.38,4,.44,4.16ZM10.12,5.84c-.27,0-.49-.23-.49-.5s.22-.5.49-.5.5.23.5.5-.22.5-.5.5Z"/>
  <circle class="cls-1" cx="7.85" cy="7.8" r="1.26"/>
</svg>