<?xml version="1.0" encoding="UTF-8"?>
<svg id="Calque_1" data-name="Calque 1" xmlns="http://www.w3.org/2000/svg" viewBox="0 0 15.59 15.59">
  <defs>
    <style>
      .cls-1 {
        fill: #f60;
      }
    </style>
  </defs>
  <path class="cls-1" d="M13.69,0H1.82C.9.05.04.89,0,1.81v11.99c.04.91.89,1.75,1.8,1.79h11.98c.92-.04,1.76-.9,1.81-1.82V1.88c-.03-.98-.93-1.87-1.9-1.88ZM5.29,12.42c-.05.16-.19.26-.37.26h-1.36c-.17-.04-.28-.13-.31-.33v-5.82c-.01-.18.08-.31.25-.37h1.53c.14.04.22.11.26.26v6.01ZM5.58,4.39c.06.03.11.05.16.09.54.29.15,1.4-.49,1.26-.19-.01-.39-.11-.52-.25-.07-.06-.12-.13-.15-.21-.12-.33-.42-.61-.7-.21-.05.14-.11.27-.19.36-.36.46-.99.43-1.3-.2-.13-.53.15-.87.58-.94.09-.01.18-.02.28-.01.14-.01.18-.01.18-.09.01-.21-.16-.27-.37-.18-.02.01-.04.02-.06.02-1.61.49-1.13-2.21.37-1.05.25.14.36.11.29-.14-.06-.16-.2-.41-.19-.55-.03-.08.12-.49.3-.59.2-.16.52-.17.65-.15.62.11.76.73.4,1.26-.05.13-.03.22.05.22.12,0,.3-.27.44-.32.37-.16.98.03,1.05.48v.08c.04.34-.42.82-.77.79h-.03c-.17-.02-.39-.1-.53.02-.07.29.27.22.56.34ZM12.31,12.67h-1.47c-.2,0-.32-.14-.32-.33v-3.33c-.01-.32-.12-.61-.3-.84-.33-.45-1.05-.47-1.42-.15-.22.18-.36.41-.43.67-.04.14-.09.3-.09.46l-.02,3.3c0,.11-.14.2-.25.2h-1.48c-.15.01-.31-.13-.31-.3v-5.92c.01-.14.12-.28.26-.28h1.54c.38-.01.18.64.27.81.51-.76,1.12-.9,1.96-.91.52-.01,1.03.11,1.45.43.58.44.84,1.33.87,2.02l.03.67v3.17c.02.16-.14.31-.3.31Z"/>
</svg>